<svg xmlns="http://www.w3.org/2000/svg" width="91" height="87" fill="none" viewBox="0 0 91 87"><path stroke="#08C9EC" stroke-linecap="round" stroke-linejoin="round" stroke-width="2.416" d="M4.01334 79.6708L1.23252 34.1282C1.1747 33.6694 1.21945 33.2041 1.36378 32.7632C1.50812 32.3223 1.74873 31.9159 2.06959 31.5712C2.39046 31.2265 2.78421 30.9513 3.22463 30.764C3.66504 30.5766 4.14201 30.4815 4.62376 30.4848H35.891C36.6512 30.4893 37.3887 30.7339 37.9894 31.1808C38.5901 31.6277 39.0206 32.252 39.2144 32.9571L41.9274 43.497H86.0135C86.4826 43.4955 86.947 43.5875 87.3771 43.767C87.8073 43.9465 88.194 44.2097 88.5127 44.5399C88.8315 44.8701 89.0753 45.2601 89.2288 45.6853C89.3824 46.1105 89.4423 46.5617 89.4047 47.0103L86.7596 79.5406C86.6229 81.1744 85.8484 82.6985 84.591 83.8082C83.3335 84.9179 81.6857 85.5315 79.9771 85.5262H10.7958C9.10856 85.5343 7.47873 84.9389 6.22459 83.8562C4.97045 82.7734 4.18205 81.2812 4.01334 79.6708Z"/><path stroke="#000001" stroke-linecap="round" stroke-linejoin="round" stroke-width="2.416" d="M21.5811 17.4731V4.46092C21.5811 3.59816 21.9383 2.77074 22.5743 2.16068C23.2103 1.55062 24.0729 1.20789 24.9723 1.20789H82.6234C83.5228 1.20789 84.3854 1.55062 85.0213 2.16068C85.6573 2.77074 86.0146 3.59816 86.0146 4.46092V30.4852"/><path stroke="#000001" stroke-linecap="round" stroke-linejoin="round" stroke-width="2.416" d="M48.709 17.4727H69.0564"/></svg>