<svg xmlns="http://www.w3.org/2000/svg" width="75" height="93" fill="none" viewBox="0 0 75 93"><path stroke="#08C9EC" stroke-linecap="round" stroke-linejoin="round" stroke-width="2.416" d="M55.4309 8.14343H66.2754C68.1929 8.14343 70.0318 8.87418 71.3876 10.1749C72.7435 11.4757 73.5052 13.2398 73.5052 15.0794V84.4388C73.5052 86.2783 72.7435 88.0425 71.3876 89.3432C70.0318 90.644 68.1929 91.3747 66.2754 91.3747H8.43772C6.52028 91.3747 4.68138 90.644 3.32554 89.3432C1.96971 88.0425 1.20801 86.2783 1.20801 84.4388V15.0794C1.20801 13.2398 1.96971 11.4757 3.32554 10.1749C4.68138 8.87418 6.52028 8.14343 8.43772 8.14343H19.2823"/><path stroke="#08C9EC" stroke-linecap="round" stroke-linejoin="round" stroke-width="2.416" d="M48.2011 1.20789H26.5119C22.5191 1.20789 19.2822 4.31321 19.2822 8.14383V11.6118C19.2822 15.4424 22.5191 18.5477 26.5119 18.5477H48.2011C52.1939 18.5477 55.4308 15.4424 55.4308 11.6118V8.14383C55.4308 4.31321 52.1939 1.20789 48.2011 1.20789Z"/><path stroke="#000" stroke-linecap="round" stroke-linejoin="round" stroke-width="2.416" d="M19.2822 35.8881H55.4308"/><path stroke="#000" stroke-linecap="round" stroke-linejoin="round" stroke-width="2.416" d="M19.2822 53.2275H55.4308"/><path stroke="#000" stroke-linecap="round" stroke-linejoin="round" stroke-width="2.416" d="M19.2822 70.567H55.4308"/></svg>