<svg width="81" height="105" viewBox="0 0 81 105" fill="none" xmlns="http://www.w3.org/2000/svg">
<path d="M59.97 9.17554H71.6918C73.7643 9.17554 75.7519 9.99885 77.2174 11.4643C78.6829 12.9299 79.5063 14.9175 79.5063 16.99V95.135C79.5063 97.2075 78.6829 99.1951 77.2174 100.661C75.7519 102.126 73.7643 102.949 71.6918 102.949H9.17582C7.10329 102.949 5.11564 102.126 3.65014 100.661C2.18464 99.1951 1.36133 97.2075 1.36133 95.135V16.99C1.36133 14.9175 2.18464 12.9299 3.65014 11.4643C5.11564 9.99885 7.10329 9.17554 9.17582 9.17554H20.8976" stroke="#08C9EC" stroke-width="2.72182" stroke-linecap="round" stroke-linejoin="round"/>
<path d="M52.1545 1.36096H28.711C24.3952 1.36096 20.8965 4.85963 20.8965 9.17545V13.0827C20.8965 17.3985 24.3952 20.8972 28.711 20.8972H52.1545C56.4703 20.8972 59.9689 17.3985 59.9689 13.0827V9.17545C59.9689 4.85963 56.4703 1.36096 52.1545 1.36096Z" stroke="#08C9EC" stroke-width="2.72182" stroke-linecap="round" stroke-linejoin="round"/>
<path d="M20.8965 63.8775L36.5255 75.5993L56.0617 44.3413" stroke="black" stroke-width="2.72182" stroke-linecap="round" stroke-linejoin="round"/>
</svg>
